<?xml version="1.0" encoding="UTF-8" ?>
<svg version="1.1" width="32" height="32" xmlns="http://www.w3.org/2000/svg" shape-rendering="crispEdges">
<rect x="13" y="0" width="6" height="5" fill="#9ABDAF" />
<rect x="10" y="1" width="3" height="3" fill="#9ABDAF" />
<rect x="19" y="1" width="3" height="11" fill="#9ABDAF" />
<rect x="8" y="2" width="2" height="2" fill="#9ABDAF" />
<rect x="22" y="2" width="2" height="8" fill="#9ABDAF" />
<rect x="7" y="3" width="1" height="2" fill="#9ABDAF" />
<rect x="24" y="3" width="1" height="5" fill="#9ABDAF" />
<rect x="5" y="4" width="2" height="2" fill="#9ABDAF" />
<rect x="8" y="4" width="1" height="1" fill="#9ABDAF" />
<rect x="9" y="4" width="4" height="3" fill="#E5E4B6" />
<rect x="25" y="4" width="2" height="4" fill="#9ABDAF" />
<rect x="4" y="5" width="1" height="15" fill="#9ABDAF" />
<rect x="7" y="5" width="2" height="5" fill="#E5E4B6" />
<rect x="13" y="5" width="2" height="1" fill="#E5E4B6" />
<rect x="15" y="5" width="4" height="1" fill="#9ABDAF" />
<rect x="27" y="5" width="1" height="6" fill="#9ABDAF" />
<rect x="5" y="6" width="1" height="2" fill="#9ABDAF" />
<rect x="6" y="6" width="1" height="7" fill="#E5E4B6" />
<rect x="13" y="6" width="3" height="1" fill="#9ABDB1" />
<rect x="16" y="6" width="3" height="8" fill="#9ABDAF" />
<rect x="3" y="7" width="1" height="18" fill="#9ABDAF" />
<rect x="9" y="7" width="2" height="1" fill="#E5E4B6" />
<rect x="11" y="7" width="5" height="9" fill="#9ABDAF" />
<rect x="28" y="7" width="1" height="1" fill="#9ABDB1" />
<rect x="2" y="8" width="1" height="14" fill="#9ABDAF" />
<rect x="5" y="8" width="1" height="4" fill="#E5E4B6" />
<rect x="9" y="8" width="1" height="1" fill="#E5E4B6" />
<rect x="10" y="8" width="1" height="10" fill="#9ABDAF" />
<rect x="24" y="8" width="1" height="1" fill="#658493" />
<rect x="25" y="8" width="1" height="4" fill="#9ABDAF" />
<rect x="26" y="8" width="1" height="1" fill="#658493" />
<rect x="28" y="8" width="2" height="1" fill="#658493" />
<rect x="9" y="9" width="1" height="12" fill="#9ABDAF" />
<rect x="24" y="9" width="1" height="1" fill="#9ABDAF" />
<rect x="26" y="9" width="1" height="1" fill="#9ABDAF" />
<rect x="28" y="9" width="1" height="1" fill="#9ABDAF" />
<rect x="29" y="9" width="1" height="5" fill="#658493" />
<rect x="1" y="10" width="1" height="12" fill="#9ABDAF" />
<rect x="7" y="10" width="1" height="1" fill="#E5E4B6" />
<rect x="8" y="10" width="1" height="10" fill="#9ABDAF" />
<rect x="22" y="10" width="1" height="1" fill="#658493" />
<rect x="23" y="10" width="1" height="3" fill="#9ABDAF" />
<rect x="24" y="10" width="1" height="1" fill="#658493" />
<rect x="26" y="10" width="1" height="1" fill="#658493" />
<rect x="28" y="10" width="1" height="1" fill="#658493" />
<rect x="30" y="10" width="1" height="1" fill="#658493" />
<rect x="7" y="11" width="1" height="12" fill="#9ABDAF" />
<rect x="22" y="11" width="1" height="1" fill="#9ABDAF" />
<rect x="24" y="11" width="1" height="1" fill="#9ABDAF" />
<rect x="26" y="11" width="1" height="1" fill="#9ABDAF" />
<rect x="27" y="11" width="1" height="5" fill="#658493" />
<rect x="28" y="11" width="1" height="1" fill="#9BADB7" />
<rect x="30" y="11" width="1" height="1" fill="#4A6B7C" />
<rect x="5" y="12" width="1" height="13" fill="#9ABDAF" />
<rect x="19" y="12" width="1" height="3" fill="#9ABDAF" />
<rect x="20" y="12" width="1" height="1" fill="#658493" />
<rect x="21" y="12" width="1" height="1" fill="#9ABDAF" />
<rect x="22" y="12" width="1" height="1" fill="#658493" />
<rect x="24" y="12" width="3" height="1" fill="#658493" />
<rect x="28" y="12" width="1" height="1" fill="#658493" />
<rect x="30" y="12" width="1" height="1" fill="#658493" />
<rect x="0" y="13" width="1" height="6" fill="#9ABDAF" />
<rect x="6" y="13" width="1" height="1" fill="#9ABDB1" />
<rect x="20" y="13" width="1" height="1" fill="#9ABDAF" />
<rect x="21" y="13" width="1" height="1" fill="#658493" />
<rect x="22" y="13" width="1" height="1" fill="#9BADB7" />
<rect x="23" y="13" width="1" height="9" fill="#658493" />
<rect x="24" y="13" width="1" height="1" fill="#9BADB7" />
<rect x="25" y="13" width="1" height="7" fill="#658493" />
<rect x="26" y="13" width="1" height="1" fill="#9BADB7" />
<rect x="28" y="13" width="1" height="1" fill="#4A6B7C" />
<rect x="30" y="13" width="2" height="1" fill="#4A6B7C" />
<rect x="6" y="14" width="1" height="6" fill="#9ABDAF" />
<rect x="16" y="14" width="2" height="2" fill="#9ABDAF" />
<rect x="18" y="14" width="1" height="1" fill="#658493" />
<rect x="20" y="14" width="1" height="1" fill="#658493" />
<rect x="21" y="14" width="1" height="1" fill="#9BADB7" />
<rect x="22" y="14" width="1" height="1" fill="#658493" />
<rect x="24" y="14" width="1" height="1" fill="#658493" />
<rect x="26" y="14" width="1" height="3" fill="#658493" />
<rect x="28" y="14" width="1" height="1" fill="#658493" />
<rect x="29" y="14" width="1" height="10" fill="#4A6B7C" />
<rect x="30" y="14" width="1" height="1" fill="#658493" />
<rect x="31" y="14" width="1" height="5" fill="#4A6B7C" />
<rect x="18" y="15" width="1" height="1" fill="#9ABDAF" />
<rect x="19" y="15" width="1" height="1" fill="#658493" />
<rect x="20" y="15" width="1" height="1" fill="#9BADB7" />
<rect x="21" y="15" width="1" height="9" fill="#658493" />
<rect x="22" y="15" width="1" height="1" fill="#9BADB7" />
<rect x="24" y="15" width="1" height="1" fill="#9BADB7" />
<rect x="28" y="15" width="1" height="1" fill="#4A6B7C" />
<rect x="30" y="15" width="1" height="7" fill="#4A6B7C" />
<rect x="11" y="16" width="1" height="3" fill="#9ABDAF" />
<rect x="12" y="16" width="1" height="1" fill="#658493" />
<rect x="13" y="16" width="1" height="1" fill="#9ABDAF" />
<rect x="14" y="16" width="1" height="1" fill="#658493" />
<rect x="15" y="16" width="1" height="1" fill="#9ABDAF" />
<rect x="16" y="16" width="1" height="1" fill="#658493" />
<rect x="17" y="16" width="1" height="1" fill="#9ABDAF" />
<rect x="18" y="16" width="1" height="1" fill="#658493" />
<rect x="19" y="16" width="1" height="1" fill="#9BADB7" />
<rect x="20" y="16" width="1" height="1" fill="#658493" />
<rect x="22" y="16" width="1" height="1" fill="#658493" />
<rect x="24" y="16" width="1" height="5" fill="#658493" />
<rect x="27" y="16" width="1" height="1" fill="#4A6B7C" />
<rect x="28" y="16" width="1" height="1" fill="#658493" />
<rect x="12" y="17" width="1" height="1" fill="#9ABDAF" />
<rect x="13" y="17" width="1" height="1" fill="#658493" />
<rect x="14" y="17" width="1" height="1" fill="#9BADB7" />
<rect x="15" y="17" width="1" height="1" fill="#658493" />
<rect x="16" y="17" width="1" height="1" fill="#9BADB7" />
<rect x="17" y="17" width="1" height="1" fill="#658493" />
<rect x="18" y="17" width="1" height="1" fill="#9BADB7" />
<rect x="19" y="17" width="1" height="9" fill="#658493" />
<rect x="20" y="17" width="1" height="1" fill="#9BADB7" />
<rect x="22" y="17" width="1" height="1" fill="#9BADB7" />
<rect x="26" y="17" width="1" height="1" fill="#4A6B7C" />
<rect x="27" y="17" width="1" height="1" fill="#658493" />
<rect x="28" y="17" width="1" height="8" fill="#4A6B7C" />
<rect x="10" y="18" width="1" height="1" fill="#658493" />
<rect x="12" y="18" width="1" height="1" fill="#658493" />
<rect x="13" y="18" width="1" height="1" fill="#9BADB7" />
<rect x="14" y="18" width="1" height="1" fill="#658493" />
<rect x="15" y="18" width="1" height="1" fill="#9BADB7" />
<rect x="16" y="18" width="1" height="1" fill="#658493" />
<rect x="17" y="18" width="1" height="1" fill="#9BADB7" />
<rect x="18" y="18" width="1" height="1" fill="#658493" />
<rect x="20" y="18" width="1" height="1" fill="#658493" />
<rect x="22" y="18" width="1" height="5" fill="#658493" />
<rect x="26" y="18" width="1" height="1" fill="#658493" />
<rect x="27" y="18" width="1" height="9" fill="#4A6B7C" />
<rect x="10" y="19" width="1" height="1" fill="#9ABDAF" />
<rect x="11" y="19" width="1" height="1" fill="#658493" />
<rect x="12" y="19" width="1" height="1" fill="#9BADB7" />
<rect x="13" y="19" width="1" height="13" fill="#658493" />
<rect x="14" y="19" width="1" height="1" fill="#9BADB7" />
<rect x="15" y="19" width="1" height="13" fill="#658493" />
<rect x="16" y="19" width="1" height="1" fill="#9BADB7" />
<rect x="17" y="19" width="1" height="11" fill="#658493" />
<rect x="18" y="19" width="1" height="1" fill="#9BADB7" />
<rect x="20" y="19" width="1" height="1" fill="#9BADB7" />
<rect x="26" y="19" width="1" height="1" fill="#4A6B7C" />
<rect x="4" y="20" width="1" height="1" fill="#658493" />
<rect x="6" y="20" width="1" height="1" fill="#658493" />
<rect x="8" y="20" width="1" height="1" fill="#658493" />
<rect x="10" y="20" width="1" height="1" fill="#658493" />
<rect x="11" y="20" width="1" height="1" fill="#9BADB7" />
<rect x="12" y="20" width="1" height="1" fill="#658493" />
<rect x="14" y="20" width="1" height="1" fill="#658493" />
<rect x="16" y="20" width="1" height="9" fill="#658493" />
<rect x="18" y="20" width="1" height="7" fill="#658493" />
<rect x="20" y="20" width="1" height="5" fill="#658493" />
<rect x="25" y="20" width="1" height="8" fill="#4A6B7C" />
<rect x="26" y="20" width="1" height="1" fill="#658493" />
<rect x="4" y="21" width="1" height="1" fill="#9ABDAF" />
<rect x="6" y="21" width="1" height="1" fill="#9ABDAF" />
<rect x="8" y="21" width="1" height="1" fill="#9ABDAF" />
<rect x="9" y="21" width="1" height="1" fill="#658493" />
<rect x="10" y="21" width="1" height="1" fill="#9BADB7" />
<rect x="11" y="21" width="1" height="10" fill="#658493" />
<rect x="12" y="21" width="1" height="1" fill="#9BADB7" />
<rect x="14" y="21" width="1" height="1" fill="#9BADB7" />
<rect x="24" y="21" width="1" height="1" fill="#4A6B7C" />
<rect x="26" y="21" width="1" height="7" fill="#4A6B7C" />
<rect x="2" y="22" width="1" height="1" fill="#658493" />
<rect x="4" y="22" width="1" height="1" fill="#658493" />
<rect x="6" y="22" width="1" height="1" fill="#658493" />
<rect x="8" y="22" width="1" height="1" fill="#658493" />
<rect x="9" y="22" width="1" height="1" fill="#9BADB7" />
<rect x="10" y="22" width="1" height="1" fill="#658493" />
<rect x="12" y="22" width="1" height="1" fill="#658493" />
<rect x="14" y="22" width="1" height="7" fill="#658493" />
<rect x="23" y="22" width="1" height="8" fill="#4A6B7C" />
<rect x="24" y="22" width="1" height="1" fill="#658493" />
<rect x="2" y="23" width="1" height="1" fill="#9ABDAF" />
<rect x="4" y="23" width="1" height="1" fill="#9ABDAF" />
<rect x="6" y="23" width="1" height="1" fill="#9ABDAF" />
<rect x="7" y="23" width="1" height="1" fill="#658493" />
<rect x="8" y="23" width="1" height="1" fill="#9BADB7" />
<rect x="9" y="23" width="1" height="7" fill="#658493" />
<rect x="10" y="23" width="1" height="1" fill="#9BADB7" />
<rect x="12" y="23" width="1" height="1" fill="#9BADB7" />
<rect x="22" y="23" width="1" height="1" fill="#4A6B7C" />
<rect x="24" y="23" width="1" height="1" fill="#4A6B7C" />
<rect x="4" y="24" width="1" height="1" fill="#658493" />
<rect x="6" y="24" width="1" height="1" fill="#658493" />
<rect x="7" y="24" width="1" height="1" fill="#9BADB7" />
<rect x="8" y="24" width="1" height="1" fill="#658493" />
<rect x="10" y="24" width="1" height="1" fill="#658493" />
<rect x="12" y="24" width="1" height="7" fill="#658493" />
<rect x="21" y="24" width="1" height="1" fill="#4A6B7C" />
<rect x="22" y="24" width="1" height="1" fill="#658493" />
<rect x="24" y="24" width="1" height="1" fill="#658493" />
<rect x="4" y="25" width="1" height="1" fill="#9BADB7" />
<rect x="5" y="25" width="1" height="1" fill="#658493" />
<rect x="6" y="25" width="1" height="1" fill="#9BADB7" />
<rect x="7" y="25" width="1" height="4" fill="#658493" />
<rect x="8" y="25" width="1" height="1" fill="#9BADB7" />
<rect x="10" y="25" width="1" height="1" fill="#9BADB7" />
<rect x="20" y="25" width="1" height="1" fill="#4A6B7C" />
<rect x="21" y="25" width="1" height="1" fill="#658493" />
<rect x="22" y="25" width="1" height="1" fill="#4A6B7C" />
<rect x="24" y="25" width="1" height="4" fill="#4A6B7C" />
<rect x="4" y="26" width="1" height="1" fill="#658493" />
<rect x="5" y="26" width="1" height="1" fill="#9BADB7" />
<rect x="6" y="26" width="1" height="2" fill="#658493" />
<rect x="8" y="26" width="1" height="4" fill="#658493" />
<rect x="10" y="26" width="1" height="5" fill="#658493" />
<rect x="19" y="26" width="1" height="1" fill="#4A6B7C" />
<rect x="20" y="26" width="1" height="1" fill="#658493" />
<rect x="21" y="26" width="1" height="5" fill="#4A6B7C" />
<rect x="22" y="26" width="1" height="1" fill="#658493" />
<rect x="5" y="27" width="1" height="1" fill="#658493" />
<rect x="18" y="27" width="1" height="1" fill="#4A6B7C" />
<rect x="19" y="27" width="1" height="1" fill="#658493" />
<rect x="20" y="27" width="1" height="1" fill="#4A6B7C" />
<rect x="22" y="27" width="1" height="3" fill="#4A6B7C" />
<rect x="18" y="28" width="1" height="1" fill="#658493" />
<rect x="19" y="28" width="1" height="3" fill="#4A6B7C" />
<rect x="20" y="28" width="1" height="1" fill="#658493" />
<rect x="14" y="29" width="1" height="1" fill="#4A6B7C" />
<rect x="16" y="29" width="1" height="1" fill="#4A6B7C" />
<rect x="18" y="29" width="1" height="1" fill="#4A6B7C" />
<rect x="20" y="29" width="1" height="2" fill="#4A6B7C" />
<rect x="14" y="30" width="1" height="1" fill="#658493" />
<rect x="16" y="30" width="1" height="1" fill="#658493" />
<rect x="17" y="30" width="1" height="2" fill="#4A6B7C" />
<rect x="18" y="30" width="1" height="1" fill="#658493" />
<rect x="14" y="31" width="1" height="1" fill="#4A6B7C" />
<rect x="16" y="31" width="1" height="1" fill="#4A6B7C" />
<rect x="18" y="31" width="1" height="1" fill="#4A6B7C" />
</svg>